<svg 
	id="lght-file-icon" 
	xmlns="http://www.w3.org/2000/svg" 
	xmlns:xlink="http://www.w3.org/1999/xlink" 
	viewBox="0 0 56 56">

	<style>
		.file-body {
			fill: #E9E9E0;
		}
		.file-corner {
			fill: lightgrey;
		}
		.file-type text {
			font-size: 14px;
			font-family: Lucida Grande, sans-serif;
			fill: white;
		}
	</style>
	
	<path class="file-body" d="M 36.985, 0 H 7.963 C 7.155, 0, 6.5, 0.655, 6.5, 1.926 V 55 c 0, 0.345, 0.655, 1, 1.463, 1 h 40.074 c 0.808, 0, 1.463 -0.655, 1.463 -1 V 12.978 c 0 -0.696 -0.093 -0.92 -0.257 -1.085 L 37.607, 0.257 C 37.442, 0.093, 37.218, 0, 36.985, 0 z" />	
	<g class="file-icon" transform="translate(12, 6) scale(0.06)">
		<path d="M214.786,437.981h82.428C274.446,458.277,272.366,462,263.924,462h-16.636
		C238.651,462,236.423,457.983,214.786,437.981z M297.785,401.497h-83.57c-6.138,0-11.114,4.976-11.114,11.113
		c0,6.137,4.976,11.112,11.114,11.112h83.571c6.137,0,11.112-4.976,11.112-11.112C308.898,406.473,303.923,401.497,297.785,401.497z
		 M299.785,364.496h-87.57c-6.138,0-11.114,4.976-11.114,11.113c0,6.137,4.976,11.112,11.114,11.112h87.571
		c6.137,0,11.112-4.976,11.112-11.112C310.898,369.472,305.923,364.496,299.785,364.496z M382.51,171.709
		c0,75.243-66.71,117.411-66.71,176.788H196.2c0-59.377-66.709-101.545-66.709-176.788C129.49,93.207,192.698,50,255.93,50
		C319.208,50,382.51,93.266,382.51,171.709z M259.78,107.398l-4.536-24.588c-50.718,11.047-78.053,48.055-85.782,90.884l24.448,5.225
		C199.936,150.724,214.621,120.192,259.78,107.398z" style="fill:#F29C1F" />
	</g>
	<g class="file-type">
		<path d="M 48.037, 56 H 7.963 C 7.155, 56, 6.5, 55.345, 6.5, 54.537 V 39 h 43 v 15.537 C 49.5, 55.345, 48.845, 56, 48.037, 56 z" style="fill:#F29C1F;" />
		<text x="28" y="52.5" text-anchor="middle">LGHT</text>
	</g>
	<polygon class="file-corner" points="37.5, 0.151 37.5, 12 49.349, 12" stroke-linejoin="round" />
</svg>