<svg 
	id="roa-file-icon"
	xmlns="http://www.w3.org/2000/svg" 
	xmlns:xlink="http://www.w3.org/1999/xlink" 
	viewBox="0 0 56 56">

	<style>
		.file-body {
			fill: white;
			stroke: black;
			stroke-width: 1px;
		}
		.file-icon {
			fill: black;
		}
		.file-corner {
			fill: white;
			stroke: black;
		}
		.file-type path {
			fill: black;
		}
		.file-type text {
			font-size: 14px;
			font-family: Lucida Grande, sans-serif;
			fill: white;
		}
	</style>
	
	<path class="file-body" d="M 36.985, 0 H 7.963 C 7.155, 0, 6.5, 0.655, 6.5, 1.926 V 55 c 0, 0.345, 0.655, 1, 1.463, 1 h 40.074 c 0.808, 0, 1.463 -0.655, 1.463 -1 V 12.978 c 0 -0.696 -0.093 -0.92 -0.257 -1.085 L 37.607, 0.257 C 37.442, 0.093, 37.218, 0, 36.985, 0 z" />	
	<g class="file-icon" transform="translate(12, 1) scale(0.06)">
		<path d="m 103.6688,334.08496 c 0,119.18143 34.49617,215.79625 77.05269,215.79625 42.55265,0 77.05011,-96.61482 77.05011,-215.79625 0,-119.18143 -34.49746,-215.79625 -77.05011,-215.79625 -42.55652,0 -77.05269,96.61482 -77.05269,215.79625 z" />
		<path d="M 271.52554,168.2803 c 16.02674,44.88903 24.85413,103.77243 24.85413,165.80466 0,62.03223 -8.82739,120.91433 -24.85413,165.80466 -7.0964,19.87375 -15.48364,36.63374 -24.9957,49.99159 l 59.49057,0 c 42.55524,0 77.05269,-96.61482 77.05269,-215.79625 0,-119.18143 -34.49745,-215.79625 -77.05269,-215.79625 l -59.49057,0 c 9.51206,13.35785 17.8993,30.11654 24.9957,49.99159 z" />
	</g>
	<g class="file-type">
		<path d="M 48.037, 56 H 7.963 C 7.155, 56, 6.5, 55.345, 6.5, 54.537 V 39 h 43 v 15.537 C 49.5, 55.345, 48.845, 56, 48.037, 56 z" />
		<text x="28" y="52.5" text-anchor="middle">ROA</text>
	</g>
	<polygon class="file-corner" points="37.5, 0.151 37.5, 12 49.349, 12" stroke-linejoin="round" />
</svg>