<svg 
	id="materials-full-icon" 
	xmlns:svg="http://www.w3.org/2000/svg" 
	xmlns="http://www.w3.org/2000/svg" 
	viewBox="0 16 48 24">
	
	<style>
		.folder-top {
			fill: tan;
		}
		.folder-body {
			fill: wheat;
		}
		.folder-contents {
			fill: white;
		}
		.folder-icon {
			fill: burlywood;
		}
	</style>

	<g class="folder-top" transform="translate(0 1.5)">
		<path d="M 43.5,11.5 H 21 L 16.5,7 h -12 c -3,0 -3,0 -3,3 v 8 h 45 v -3.5 c 0,0 0,-3 -3,-3 z" />
	</g>

	<rect class="folder-contents" x="3" y="14.5" width="42" height="2.25" />

	<g class="folder-body">
		<path id="folder-cover" d="M 3,16.75 C 1.5,16.75 1.5,18 1.5,18 v 25.75 c 0,2.25 0,2 3,2 h 39 c 3,0 3,0.25 3,-2 V 18 c 0,0 0,-1.25 -1.5,-1.25 z" />
	</g>

	<g class="folder-icon" transform="translate(11.5, 19) scale(0.05)">
		<path d="M176.822,204.5h158.355L256,444.834L176.822,204.5z M187.333,170.167h137.333L256,78.608L187.333,170.167z
	 M367.584,170.167H462l-103-103h-68.666L367.584,170.167z M144.417,170.167l77.25-103h-67.225L50,170.167H144.417z M50,204.5 l158.523,206l-67.896-206H50z M371.372,204.5l-67.358,206L462,204.5H371.372z"/>
	</g>
</svg>