<svg 
	id="optics-full-icon" 
	xmlns:svg="http://www.w3.org/2000/svg" 
	xmlns="http://www.w3.org/2000/svg" 
	viewBox="0 16 48 24">
	
	<style>
		.folder-top {
			fill: tan;
		}
		.folder-body {
			fill: wheat;
		}
		.folder-contents {
			fill: white;
		}
		.folder-icon {
			fill: burlywood;
		}
	</style>

	<g class="folder-top" transform="translate(0 1.5)">
		<path d="M 43.5,11.5 H 21 L 16.5,7 h -12 c -3,0 -3,0 -3,3 v 8 h 45 v -3.5 c 0,0 0,-3 -3,-3 z" />
	</g>

	<rect class="folder-contents" x="3" y="14.5" width="42" height="2.25" />

	<g class="folder-body">
		<path id="folder-cover" d="M 3,16.75 C 1.5,16.75 1.5,18 1.5,18 v 25.75 c 0,2.25 0,2 3,2 h 39 c 3,0 3,0.25 3,-2 V 18 c 0,0 0,-1.25 -1.5,-1.25 z" />
	</g>

	<g class="folder-icon" transform="translate(11.5, 14.5), scale(.05)">
		<path d="m 103.6688,334.08496 c 0,119.18143 34.49617,215.79625 77.05269,215.79625 42.55265,0 77.05011,-96.61482 77.05011,-215.79625 0,-119.18143 -34.49746,-215.79625 -77.05011,-215.79625 -42.55652,0 -77.05269,96.61482 -77.05269,215.79625 z M 271.52554,168.2803 c 16.02674,44.88903 24.85413,103.77243 24.85413,165.80466 0,62.03223 -8.82739,120.91433 -24.85413,165.80466 -7.0964,19.87375 -15.48364,36.63374 -24.9957,49.99159 l 59.49057,0 c 42.55524,0 77.05269,-96.61482 77.05269,-215.79625 0,-119.18143 -34.49745,-215.79625 -77.05269,-215.79625 l -59.49057,0 c 9.51206,13.35785 17.8993,30.11654 24.9957,49.99159 z" />
	</g>
</svg>